# xmcd
#
# Track frame offsets: 
#        150
#        15746
#        28409
#        41042
#        54975
#        70605
#        83596
#        101729
#        119631
#        135829
#        157463
#        169563
#
# Disc length: 2716 seconds
#
# Revision: 0
# Processed by: cddbd v1.5.2PL0 Copyright (c) Steve Scherf et al.
# Submitted via: ExactAudioCopy v0.99pb4
#
DISCID=9d0a9a0c
DTITLE=Ratz Fatz - Schwarze Katz
DYEAR=2006
DGENRE=
TTITLE0=Ratz Fatz
TTITLE1=Der Mottensong
TTITLE2=Der Riese Mutakirorikatum
TTITLE3=Der Teiflsgeign-Boogie
TTITLE4=Humdideldum, der Schneemann
TTITLE5=Das Kokester
TTITLE6=Der Kokosnuss-Song
TTITLE7=Die Sockenfresser-Waschmaschine
TTITLE8=Dulap (Das Zehenklavier)
TTITLE9=Achmed und Zubaidia
TTITLE10=Am schianschten isch es dahoam
TTITLE11=Der Ofenbank-Landler
EXTD=
EXTT0=
EXTT1=
EXTT2=
EXTT3=
EXTT4=
EXTT5=
EXTT6=
EXTT7=
EXTT8=
EXTT9=
EXTT10=
EXTT11=
PLAYORDER=
